<svg width="91" height="303" viewBox="0 0 91 303" fill="none" xmlns="http://www.w3.org/2000/svg">
<path d="M2.128 71.632L89.776 71.632V80.752L2.128 80.752L2.128 71.632ZM39.664 63.568H51.76V90.64H39.664V63.568ZM23.728 55.216V59.728L67.792 59.728V55.216L23.728 55.216ZM23.728 43.504V48.016L67.792 48.016V43.504L23.728 43.504ZM12.496 35.824L79.504 35.824L79.504 67.408L12.496 67.408L12.496 35.824ZM8.656 6.832L83.728 6.832V15.856L8.656 15.856L8.656 6.832ZM2.512 22.96L89.296 22.96V31.984L2.512 31.984L2.512 22.96ZM39.568 0.495996L51.76 0.495996V13.264L39.568 13.264V0.495996ZM59.248 13.84L71.536 15.952C69.52 19.888 67.696 23.248 66.256 25.744L55.312 23.728C56.656 20.848 58.384 16.72 59.248 13.84ZM21.328 16.24L32.464 14.32C34.288 17.008 36.016 20.848 36.592 23.536L24.976 25.936C24.496 23.248 22.96 19.12 21.328 16.24ZM41.872 109.856L78.16 110.24L78.064 120.128L41.776 119.84L41.872 109.856ZM52.24 118.304C58.864 129.632 72.496 137.12 90.64 139.808C88.048 142.208 84.88 146.816 83.248 149.888C64.24 145.76 50.896 136.16 43.024 120.896L52.24 118.304ZM74.512 110.144H76.72L78.64 109.76L85.552 112.352C79.024 132.992 63.664 143.84 43.504 148.832C42.448 146.048 39.952 141.44 37.936 139.04C55.6 135.776 69.616 126.464 74.512 111.584V110.144ZM6.64 111.872L17.008 111.968L16.72 145.088L6.352 144.992L6.64 111.872ZM25.744 108.8L36.016 108.896L35.728 147.296L25.456 147.2L25.744 108.8ZM39.088 161.984H51.184V168.224C51.184 177.152 46.576 188.768 12.112 196.256C10.672 193.76 7.216 189.536 4.432 187.232C36.976 181.76 39.088 173.504 39.088 167.936V161.984ZM48.112 182.816L53.584 174.272C64.144 177.056 79.408 182.432 87.28 186.368L81.424 196.16C74.128 192.032 59.056 186.176 48.112 182.816ZM14.32 149.6H78.256V177.728H66.352V160.16H25.648V178.304H14.32L14.32 149.6ZM14.896 261.84H77.872L77.872 302.544H65.968L65.968 270.96H26.224L26.224 302.544H14.896L14.896 261.84ZM21.712 276.24H70V284.592H21.712V276.24ZM13.36 219.696H43.792V228.624H13.36L13.36 219.696ZM1.936 234.96H46.096L46.096 243.984H1.936L1.936 234.96ZM21.712 290.256H70V299.376H21.712L21.712 290.256ZM20.464 222.384H31.312V232.944C31.312 242.736 27.664 255.984 8.176 264.912C6.64 262.608 3.376 259.056 0.784 257.232C18.832 250.32 20.464 239.856 20.464 232.848L20.464 222.384ZM11.632 211.92L21.904 213.936C19.504 222.576 15.088 230.832 10.192 236.112C8.08 234.48 3.664 231.888 1.168 230.736C6.064 226.128 9.808 219.024 11.632 211.92ZM29.488 243.504C32.944 245.136 43.696 251.28 46.48 253.104L38.224 260.4C34.48 257.232 26.032 250.992 21.712 248.208L29.488 243.504ZM60.016 229.68V245.904H74.704V229.68H60.016ZM49.36 219.504L86.032 219.504V256.176H49.36L49.36 219.504Z" fill="#EEEEEE"/>
</svg>
