<svg width="198" height="61" viewBox="0 0 198 61" fill="none" xmlns="http://www.w3.org/2000/svg">
<path d="M0.851999 48.088L59.284 48.088V54.168L0.851999 54.168V48.088ZM25.876 42.712H33.94V60.76H25.876V42.712ZM15.252 37.144V40.152H44.628V37.144H15.252ZM15.252 29.336V32.344H44.628V29.336H15.252ZM7.764 24.216L52.436 24.216L52.436 45.272L7.764 45.272V24.216ZM5.204 4.888L55.252 4.888V10.904L5.204 10.904V4.888ZM1.108 15.64L58.964 15.64V21.656L1.108 21.656L1.108 15.64ZM25.812 0.663998L33.94 0.663998V9.176L25.812 9.176V0.663998ZM38.932 9.56L47.124 10.968C45.78 13.592 44.564 15.832 43.604 17.496L36.308 16.152C37.204 14.232 38.356 11.48 38.932 9.56ZM13.652 11.16L21.076 9.88C22.292 11.672 23.444 14.232 23.828 16.024L16.084 17.624C15.764 15.832 14.74 13.08 13.652 11.16ZM97.748 2.904L121.94 3.16L121.876 9.752L97.684 9.56L97.748 2.904ZM104.66 8.536C109.076 16.088 118.164 21.08 130.26 22.872C128.532 24.472 126.42 27.544 125.332 29.592C112.66 26.84 103.764 20.44 98.516 10.264L104.66 8.536ZM119.508 3.096H120.98L122.26 2.84L126.868 4.568C122.516 18.328 112.276 25.56 98.836 28.888C98.132 27.032 96.468 23.96 95.124 22.36C106.9 20.184 116.244 13.976 119.508 4.056V3.096ZM74.26 4.248L81.172 4.312L80.98 26.392L74.068 26.328L74.26 4.248ZM86.996 2.2L93.844 2.264L93.652 27.864L86.804 27.8L86.996 2.2ZM95.892 37.656L103.956 37.656V41.816C103.956 47.768 100.884 55.512 77.908 60.504C76.948 58.84 74.644 56.024 72.788 54.488C94.484 50.84 95.892 45.336 95.892 41.624V37.656ZM101.908 51.544L105.556 45.848C112.596 47.704 122.772 51.288 128.02 53.912L124.116 60.44C119.252 57.688 109.204 53.784 101.908 51.544ZM79.38 29.4L122.004 29.4V48.152H114.068V36.44L86.932 36.44V48.536H79.38V29.4ZM150.164 33.56L192.148 33.56V60.696H184.212V39.64H157.716V60.696H150.164V33.56ZM154.708 43.16H186.9V48.728H154.708V43.16ZM149.14 5.464L169.428 5.464V11.416L149.14 11.416V5.464ZM141.524 15.64L170.964 15.64V21.656L141.524 21.656V15.64ZM154.708 52.504H186.9V58.584H154.708V52.504ZM153.876 7.256L161.108 7.256V14.296C161.108 20.824 158.676 29.656 145.684 35.608C144.66 34.072 142.484 31.704 140.756 30.488C152.788 25.88 153.876 18.904 153.876 14.232V7.256ZM147.988 0.279999L154.836 1.624C153.236 7.384 150.292 12.888 147.028 16.408C145.62 15.32 142.676 13.592 141.012 12.824C144.276 9.752 146.772 5.016 147.988 0.279999ZM159.892 21.336C162.196 22.424 169.364 26.52 171.22 27.736L165.716 32.6C163.22 30.488 157.588 26.328 154.708 24.472L159.892 21.336ZM180.244 12.12V22.936H190.036V12.12H180.244ZM173.14 5.336L197.588 5.336V29.784L173.14 29.784V5.336Z" fill="#EEEEEE"/>
</svg>
